<svg viewBox="0 0 72 72" xmlns="http://www.w3.org/2000/svg"><path d="m36 65.0208s-3.091-5.9737-13.8722-26.8922c-2.1278-4.1286-4.8172-7.7062-4.8172-12.5241 0-10.3214 8.3671-18.6885 18.6885-18.6885l.0001 8.0285s-10.4584.5199-10.4584 10.3971 10.4587 10.7561 10.4587 10.7561z" fill="#d0cfce"/><path d="m35.9736 65.0172s2.998-6.0172 13.8722-26.8922c2.0634-3.9611 4.8173-7.7062 4.8173-12.5242 0-10.3214-8.3671-18.6885-18.6885-18.6885l-.2836 8.0321s11.1773.2666 11.0085 10.7347-11.0088 10.4184-11.0088 10.4184z" fill="#d0cfce"/><path d="m36.8281 7.5469s9.7494 4.0365 11.8385 15.2865c2.0391 10.9801-9.1666 30.1666-12.1666 39.8333s18.1914-34.6667 18.1914-34.6667.4648-20.7188-17.8633-20.4531z" fill="#9b9b9a"/><g style="fill:none;stroke:#000;stroke-linecap:round;stroke-linejoin:round;stroke-miterlimit:10;stroke-width:2"><circle cx="36.001" cy="25.5211" r="10.5766"/><path d="m36 65.0208s-3.091-5.9737-13.8722-26.8922c-2.1278-4.1286-4.8172-7.7062-4.8172-12.5241 0-10.3214 8.3671-18.6885 18.6885-18.6885"/><path d="m36.002 65.0172s2.998-6.0172 13.8722-26.8922c2.0634-3.9611 4.8173-7.7062 4.8173-12.5242 0-10.3214-8.3671-18.6885-18.6885-18.6885"/></g></svg>